<svg width="18" height="21" viewBox="0 0 18 21" fill="none" xmlns="http://www.w3.org/2000/svg">
<path d="M17.0001 7.00049L11.0001 1.74049C10.4501 1.24854 9.73803 0.976563 9.00009 0.976562C8.26216 0.976563 7.55012 1.24854 7.00009 1.74049L1.00009 7.00049C0.682463 7.28457 0.428995 7.63305 0.256567 8.02274C0.0841385 8.41243 -0.00329256 8.83438 9.47941e-05 9.26049V18.0005C9.47941e-05 18.7961 0.316165 19.5592 0.878775 20.1218C1.44138 20.6844 2.20445 21.0005 3.00009 21.0005H15.0001C15.7957 21.0005 16.5588 20.6844 17.1214 20.1218C17.684 19.5592 18.0001 18.7961 18.0001 18.0005V9.25049C18.0021 8.82606 17.9139 8.40603 17.7416 8.01818C17.5692 7.63032 17.3165 7.28345 17.0001 7.00049ZM11.0001 19.0005H7.00009V14.0005C7.00009 13.7353 7.10545 13.4809 7.29299 13.2934C7.48052 13.1059 7.73488 13.0005 8.00009 13.0005H10.0001C10.2653 13.0005 10.5197 13.1059 10.7072 13.2934C10.8947 13.4809 11.0001 13.7353 11.0001 14.0005V19.0005ZM16.0001 18.0005C16.0001 18.2657 15.8947 18.5201 15.7072 18.7076C15.5197 18.8951 15.2653 19.0005 15.0001 19.0005H13.0001V14.0005C13.0001 13.2048 12.684 12.4418 12.1214 11.8792C11.5588 11.3166 10.7957 11.0005 10.0001 11.0005H8.00009C7.20444 11.0005 6.44138 11.3166 5.87877 11.8792C5.31616 12.4418 5.00009 13.2048 5.00009 14.0005V19.0005H3.00009C2.73488 19.0005 2.48052 18.8951 2.29299 18.7076C2.10545 18.5201 2.00009 18.2657 2.00009 18.0005V9.25049C2.00027 9.10851 2.03069 8.96819 2.08931 8.83887C2.14794 8.70956 2.23343 8.5942 2.3401 8.50049L8.34009 3.25049C8.52258 3.09018 8.75719 3.00176 9.00009 3.00176C9.243 3.00176 9.47761 3.09018 9.66009 3.25049L15.6601 8.50049C15.7668 8.5942 15.8523 8.70956 15.9109 8.83887C15.9695 8.96819 15.9999 9.10851 16.0001 9.25049V18.0005Z" fill="#C1C7CD"/>
</svg>
