<svg width="10" height="10" viewBox="0 0 10 10" fill="none" xmlns="http://www.w3.org/2000/svg">
<path fill-rule="evenodd" clip-rule="evenodd" d="M9.83729 0.948396C10.0542 0.731434 10.0542 0.379678 9.83729 0.162717C9.62035 -0.054239 9.26857 -0.054239 9.05162 0.162717L5.00001 4.21434L0.948396 0.162717C0.731434 -0.054239 0.379678 -0.054239 0.162717 0.162717C-0.054239 0.379678 -0.054239 0.731434 0.162717 0.948396L4.21434 5.00001L0.162717 9.05162C-0.054239 9.26857 -0.054239 9.62035 0.162717 9.83729C0.379678 10.0542 0.731434 10.0542 0.948396 9.83729L5.00001 5.78567L9.05162 9.83729C9.26857 10.0542 9.62035 10.0542 9.83729 9.83729C10.0542 9.62035 10.0542 9.26857 9.83729 9.05162L5.78567 5.00001L9.83729 0.948396Z" fill="white"/>
</svg>
