<svg width="11" height="11" viewBox="0 0 11 11" fill="none" xmlns="http://www.w3.org/2000/svg">
<path d="M11 5.5C11 6.95869 10.4205 8.35764 9.38909 9.38909C8.35764 10.4205 6.95869 11 5.5 11C4.04131 11 2.64236 10.4205 1.61091 9.38909C0.579463 8.35764 0 6.95869 0 5.5C0 4.04131 0.579463 2.64236 1.61091 1.61091C2.64236 0.579463 4.04131 0 5.5 0C6.95869 0 8.35764 0.579463 9.38909 1.61091C10.4205 2.64236 11 4.04131 11 5.5ZM5.5 2.75C5.41311 2.75005 5.32718 2.7683 5.24777 2.80358C5.16836 2.83885 5.09721 2.89037 5.03892 2.95481C4.98063 3.01926 4.93649 3.0952 4.90933 3.17774C4.88217 3.26028 4.87261 3.3476 4.88125 3.43406L5.12187 5.84512C5.12996 5.93984 5.1733 6.02808 5.24332 6.09237C5.31334 6.15667 5.40494 6.19235 5.5 6.19235C5.59506 6.19235 5.68666 6.15667 5.75668 6.09237C5.8267 6.02808 5.87004 5.93984 5.87813 5.84512L6.11875 3.43406C6.12739 3.3476 6.11783 3.26028 6.09067 3.17774C6.06351 3.0952 6.01937 3.01926 5.96108 2.95481C5.90279 2.89037 5.83164 2.83885 5.75223 2.80358C5.67282 2.7683 5.58689 2.75005 5.5 2.75ZM5.50137 6.875C5.31904 6.875 5.14417 6.94743 5.01524 7.07636C4.88631 7.2053 4.81387 7.38016 4.81387 7.5625C4.81387 7.74484 4.88631 7.9197 5.01524 8.04864C5.14417 8.17757 5.31904 8.25 5.50137 8.25C5.68371 8.25 5.85858 8.17757 5.98751 8.04864C6.11644 7.9197 6.18887 7.74484 6.18887 7.5625C6.18887 7.38016 6.11644 7.2053 5.98751 7.07636C5.85858 6.94743 5.68371 6.875 5.50137 6.875Z" fill="#121619"/>
</svg>
