<svg width="14" height="14" viewBox="0 0 14 14" fill="none" xmlns="http://www.w3.org/2000/svg">
<path d="M1.66732 6.9987C1.66732 4.05318 4.05513 1.66536 7.00065 1.66536C8.67869 1.66536 10.1532 2.44103 11.1221 3.66084L10.0026 3.65756C9.63442 3.65648 9.33507 3.95408 9.33399 4.32227C9.33291 4.69045 9.63051 4.9898 9.9987 4.99088L12.2939 4.99761C12.3195 4.99917 12.3453 4.99926 12.3711 4.99783L12.6654 4.9987C12.8425 4.99921 13.0126 4.92921 13.138 4.80413C13.2635 4.67905 13.334 4.50918 13.334 4.33203L13.334 1.66536C13.334 1.29717 13.0355 0.998698 12.6673 0.998698C12.2991 0.998698 12.0006 1.29718 12.0006 1.66536L12.0007 2.63168C10.7923 1.22562 9.01597 0.332031 7.00065 0.332031C3.31875 0.332031 0.333984 3.3168 0.333984 6.9987C0.333984 10.6806 3.31875 13.6654 7.00065 13.6654C9.62462 13.6654 11.8434 12.1505 12.931 9.96205C13.0949 9.63233 12.9604 9.23221 12.6307 9.06836C12.301 8.9045 11.9008 9.03896 11.737 9.36868C10.861 11.1314 9.08831 12.332 7.00065 12.332C4.05513 12.332 1.66732 9.94422 1.66732 6.9987Z" fill="#A2A9B0"/>
</svg>
