<svg width="12" height="12" viewBox="0 0 12 12" fill="none" xmlns="http://www.w3.org/2000/svg">
<path fill-rule="evenodd" clip-rule="evenodd" d="M11.8047 1.13807C12.0651 0.87772 12.0651 0.455613 11.8047 0.19526C11.5444 -0.0650867 11.1223 -0.0650867 10.8619 0.19526L6 5.0572L1.13807 0.19526C0.87772 -0.0650867 0.455613 -0.0650867 0.19526 0.19526C-0.0650867 0.455613 -0.0650867 0.87772 0.19526 1.13807L5.0572 6L0.19526 10.8619C-0.0650867 11.1223 -0.0650867 11.5444 0.19526 11.8047C0.455613 12.0651 0.87772 12.0651 1.13807 11.8047L6 6.9428L10.8619 11.8047C11.1223 12.0651 11.5444 12.0651 11.8047 11.8047C12.0651 11.5444 12.0651 11.1223 11.8047 10.8619L6.9428 6L11.8047 1.13807Z" fill="#A2A9B0"/>
</svg>
