<svg width="16" height="16" viewBox="0 0 16 16" fill="none" xmlns="http://www.w3.org/2000/svg">
<path fill-rule="evenodd" clip-rule="evenodd" d="M4.08401 12.0013H2.66667C2.29848 12.0013 2 11.7028 2 11.3346C2 10.9664 2.29848 10.668 2.66667 10.668H4.08401C4.38004 9.51782 5.42411 8.66797 6.66667 8.66797C7.90923 8.66797 8.95329 9.51782 9.24932 10.668H13.3333C13.7015 10.668 14 10.9664 14 11.3346C14 11.7028 13.7015 12.0013 13.3333 12.0013H9.24932C8.95329 13.1515 7.90923 14.0013 6.66667 14.0013C5.42411 14.0013 4.38004 13.1515 4.08401 12.0013ZM5.33333 11.3346C5.33333 10.5983 5.93029 10.0013 6.66667 10.0013C7.40305 10.0013 8 10.5983 8 11.3346C8 12.071 7.40305 12.668 6.66667 12.668C5.93029 12.668 5.33333 12.071 5.33333 11.3346Z" fill="#A2A9B0"/>
<path fill-rule="evenodd" clip-rule="evenodd" d="M6.75068 5.33333H2.66667C2.29848 5.33333 2 5.03486 2 4.66667C2 4.29848 2.29848 4 2.66667 4H6.75068C7.04671 2.84985 8.09077 2 9.33333 2C10.5759 2 11.62 2.84985 11.916 4H13.3333C13.7015 4 14 4.29848 14 4.66667C14 5.03486 13.7015 5.33333 13.3333 5.33333H11.916C11.62 6.48349 10.5759 7.33333 9.33333 7.33333C8.09077 7.33333 7.04671 6.48349 6.75068 5.33333ZM8 4.66667C8 3.93029 8.59695 3.33333 9.33333 3.33333C10.0697 3.33333 10.6667 3.93029 10.6667 4.66667C10.6667 5.40305 10.0697 6 9.33333 6C8.59695 6 8 5.40305 8 4.66667Z" fill="#A2A9B0"/>
</svg>
