<svg width="28" height="28" viewBox="0 0 28 28" fill="none" xmlns="http://www.w3.org/2000/svg">
<path d="M14 0C6.26811 0 0 6.26811 0 14C0 21.7319 6.26811 28 14 28C21.7319 28 28 21.7319 28 14C28 6.26811 21.7319 0 14 0ZM24.1111 14C24.1111 15.995 23.5254 17.85 22.5283 19.4172L8.58356 5.47244C10.15 4.47456 12.005 3.88889 14 3.88889C19.5844 3.88889 24.1111 8.41633 24.1111 14ZM3.88889 14C3.88889 12.005 4.47456 10.15 5.47244 8.58356L19.4172 22.5283C17.85 23.5254 15.995 24.1111 14 24.1111C8.41633 24.1111 3.88889 19.5844 3.88889 14Z" fill="#EB3556"/>
</svg>
