<svg width="31" height="27" viewBox="0 0 31 27" fill="none" xmlns="http://www.w3.org/2000/svg">
<path d="M17.399 1.09419C17.2072 0.761671 16.9307 0.485404 16.5974 0.293285C16.2641 0.101167 15.8857 0 15.5006 0C15.1154 0 14.7371 0.101167 14.4037 0.293285C14.0704 0.485404 13.7939 0.761671 13.6021 1.09419L0.319053 23.5926C-0.566228 25.0928 0.495335 27 2.21747 27H28.7817C30.5038 27 31.5673 25.0909 30.6801 23.5926L17.399 1.09419ZM15.4967 7.71624C16.5331 7.71624 17.3447 8.60715 17.2401 9.63497L16.5621 16.3978C16.5393 16.6635 16.4172 16.911 16.2199 17.0913C16.0226 17.2716 15.7645 17.3717 15.4967 17.3717C15.2288 17.3717 14.9707 17.2716 14.7734 17.0913C14.5761 16.911 14.454 16.6635 14.4312 16.3978L13.7532 9.63497C13.7289 9.39245 13.7558 9.14753 13.8324 8.91601C13.9089 8.68448 14.0333 8.47148 14.1975 8.29072C14.3618 8.10996 14.5622 7.96546 14.786 7.86651C15.0097 7.76757 15.2518 7.71637 15.4967 7.71624ZM15.5006 19.2865C16.0143 19.2865 16.507 19.4897 16.8703 19.8513C17.2336 20.2129 17.4377 20.7034 17.4377 21.2149C17.4377 21.7263 17.2336 22.2168 16.8703 22.5784C16.507 22.9401 16.0143 23.1432 15.5006 23.1432C14.9868 23.1432 14.4941 22.9401 14.1308 22.5784C13.7675 22.2168 13.5634 21.7263 13.5634 21.2149C13.5634 20.7034 13.7675 20.2129 14.1308 19.8513C14.4941 19.4897 14.9868 19.2865 15.5006 19.2865Z" fill="#FFB800"/>
</svg>
