<svg width="52" height="52" viewBox="0 0 52 52" fill="none" xmlns="http://www.w3.org/2000/svg">
<rect width="52" height="52" rx="26" fill="#FAFAFB"/>
<g clip-path="url(#clip0_1241_7254)">
<path d="M17.2711 9.91341C16.356 10.3719 15.6653 11.1629 15.3423 12.1338L9.1972 30.6519C8.87425 31.6228 8.94601 32.6745 9.4125 33.5914C9.87002 34.5083 10.6595 35.1915 11.6283 35.5152L31.7861 42.2931C32.764 42.6168 33.8046 42.5448 34.7196 42.0864C35.6347 41.6189 36.3254 40.8369 36.6484 39.857L42.7935 21.3479C43.4663 19.3343 42.3719 17.1409 40.3624 16.4757L20.2136 9.69767C19.2268 9.37405 18.1951 9.44597 17.2711 9.91341Z" fill="#FAFAFB"/>
<path d="M27.1215 27.6945C26.027 28.9171 24.6634 29.9059 23.0756 30.5172L22.1695 30.8678V22.2919L23.0666 22.6425C24.6545 23.2448 26.0181 24.2336 27.1215 25.4562C27.902 24.1887 28.3864 22.7324 28.4851 21.1323C28.7363 17.0241 26.1616 13.2486 22.636 11.9361L19.7294 10.9653C18.4196 10.5248 17.0202 11.244 16.5806 12.5654L10.4175 31.0835C9.97795 32.4049 10.7136 33.8343 12.0323 34.2657L26.0181 38.9492C27.4444 37.43 28.3685 35.4164 28.503 33.169C28.6376 31.1644 28.1173 29.2677 27.1215 27.6945ZM19.0386 21.7795V31.3981H17.6481V21.7795H19.0386Z" fill="#2092C8"/>
<path d="M26.314 26.5708C25.5335 25.6539 24.5915 24.8808 23.4971 24.3145V28.8362C24.5915 28.2698 25.5425 27.4878 26.314 26.5708Z" fill="#E43D30"/>
<path d="M39.9139 17.7163L27.0854 13.4194C28.8079 15.3161 29.8665 17.8242 29.8665 20.5749C29.8665 22.7503 29.1936 24.8269 28.0095 26.5708C29.1936 28.3058 29.8754 30.3913 29.8844 32.5578C29.8844 35.1557 28.9514 37.5469 27.3994 39.4077L32.2258 41.0168C33.5446 41.4572 34.9351 40.7291 35.3746 39.4166L41.5377 20.8985C41.9683 19.5771 41.2327 18.1478 39.9139 17.7163ZM36.5139 31.3622H34.7825L31.2121 26.5529L34.8364 21.7435L36.5857 21.7345L32.9525 26.5529L36.5139 31.3622Z" fill="#205C9C"/>
</g>
<defs>
<clipPath id="clip0_1241_7254">
<rect width="34" height="33" fill="white" transform="translate(9 9.5)"/>
</clipPath>
</defs>
</svg>
