<svg width="52" height="52" viewBox="0 0 52 52" fill="none" xmlns="http://www.w3.org/2000/svg">
<rect width="52" height="52" rx="26" fill="#FAFAFB"/>
<path fill-rule="evenodd" clip-rule="evenodd" d="M25.9999 13.4093L32.0019 10.2933L25.9999 22.0688L19.9978 10.2933L25.9999 13.4093ZM34.0027 19.3152L34.108 19.3876C36.7755 21.8152 38.3199 25.3297 38.3199 28.9892C38.3199 35.982 32.7742 41.7067 25.9999 41.7067C19.2257 41.7067 13.6799 36.0182 13.6799 28.9892C13.6799 25.3297 15.2243 21.8152 17.8919 19.3876L17.9972 19.3514L13.715 17.5036V11.2716L21.1562 14.5325C21.1562 14.5325 25.1926 22.3949 25.2628 22.5761C22.1039 22.9746 19.7171 25.692 19.7171 28.9892C19.7171 32.5762 22.5602 35.4747 25.9999 35.4747C29.4397 35.4747 32.2477 32.5399 32.2477 28.9892C32.2477 25.692 29.8609 22.9746 26.7019 22.5761C26.8072 22.3949 30.8437 14.4963 30.8437 14.4963L38.2848 11.2354V17.4673L34.0027 19.3152Z" fill="#FFB71B"/>
</svg>
